<svg xmlns="http://www.w3.org/2000/svg" width="512" height="512" viewBox="0 0 512 512">
  <rect width="512" height="512" rx="112" fill="#0f0f0f"/>
  <g fill="#ffffff">
    <!-- Microphone capsule -->
    <path d="M256 308c38.11 0 69-30.89 69-69V144c0-38.11-30.89-69-69-69s-69 30.89-69 69v95c0 38.11 30.89 69 69 69z"/>
    <!-- Stand and base -->
    <path d="M377.33 239c0 67.07-54.26 121.33-121.33 121.33S134.67 306.07 134.67 239H100c0 82.07 59.4 150.39 138 163.5V436h36v-33.5C352.6 389.39 412 321.07 412 239h-34.67z"/>
  </g>
</svg>
